<?xml version="1.0" encoding="UTF-8" standalone="no"?>
<!-- Created with Inkscape (http://www.inkscape.org/) -->

<svg
   xmlns:dc="http://purl.org/dc/elements/1.1/"
   xmlns:cc="http://creativecommons.org/ns#"
   xmlns:rdf="http://www.w3.org/1999/02/22-rdf-syntax-ns#"
   xmlns:svg="http://www.w3.org/2000/svg"
   xmlns="http://www.w3.org/2000/svg"
   xmlns:sodipodi="http://sodipodi.sourceforge.net/DTD/sodipodi-0.dtd"
   xmlns:inkscape="http://www.inkscape.org/namespaces/inkscape"
   width="50"
   height="50"
   viewBox="0 0 13.229166 13.229167"
   version="1.1"
   id="svg8"
   inkscape:version="0.92.4 (5da689c313, 2019-01-14)"
   sodipodi:docname="truck-red-50.svg">
  <defs
     id="defs2" />
  <sodipodi:namedview
     id="base"
     pagecolor="#ffffff"
     bordercolor="#666666"
     borderopacity="1.0"
     inkscape:pageopacity="0.0"
     inkscape:pageshadow="2"
     inkscape:zoom="5.6"
     inkscape:cx="-75.714286"
     inkscape:cy="-11.428571"
     inkscape:document-units="mm"
     inkscape:current-layer="layer1"
     showgrid="false"
     inkscape:window-width="2560"
     inkscape:window-height="1377"
     inkscape:window-x="-8"
     inkscape:window-y="-8"
     inkscape:window-maximized="1"
     units="px" />
  <metadata
     id="metadata5">
    <rdf:RDF>
      <cc:Work
         rdf:about="">
        <dc:format>image/svg+xml</dc:format>
        <dc:type
           rdf:resource="http://purl.org/dc/dcmitype/StillImage" />
        <dc:title></dc:title>
      </cc:Work>
    </rdf:RDF>
  </metadata>
  <g
     inkscape:label="Layer 1"
     inkscape:groupmode="layer"
     id="layer1"
     transform="translate(0,-283.77082)">
    <path
       id="path4518"
       d="m 12.631497,292.26113 h -0.314192 v -2.12277 c 0,-0.24939 -0.10015,-0.48896 -0.276883,-0.6657 L 10.07868,287.51092 C 9.901947,287.33419 9.6623743,287.23403 9.4129832,287.23403 H 8.5469899 v -0.94257 c 0,-0.52039 -0.4221971,-0.94258 -0.9425784,-0.94258 H 1.3205556 c -0.52038189,0 -0.94257833,0.42219 -0.94257833,0.94258 v 6.28385 c 0,0.52038 0.42219644,0.94259 0.94257833,0.94259 h 0.3141926 c 0,1.04076 0.8443937,1.88515 1.8851568,1.88515 1.0407639,0 1.8851572,-0.84439 1.8851572,-1.88515 h 2.5135416 c 0,1.04076 0.8443929,1.88515 1.8851569,1.88515 1.0407643,0 1.8851583,-0.84439 1.8851583,-1.88515 h 0.942578 c 0.172805,0 0.314192,-0.14139 0.314192,-0.3142 v -0.62839 c 0,-0.1728 -0.141387,-0.31418 -0.314192,-0.31418 z m -9.111592,2.19935 c -0.5203811,0 -0.9425784,-0.42221 -0.9425784,-0.94258 0,-0.52039 0.4221973,-0.94259 0.9425784,-0.94259 0.520382,0 0.9425784,0.4222 0.9425784,0.94259 0,0.52037 -0.4221964,0.94258 -0.9425784,0.94258 z m 6.2838557,0 c -0.520382,0 -0.9425784,-0.42221 -0.9425784,-0.94258 0,-0.52039 0.4221964,-0.94259 0.9425784,-0.94259 0.5203823,0 0.9425793,0.4222 0.9425793,0.94259 0,0.52037 -0.422197,0.94258 -0.9425793,0.94258 z m 1.5709653,-4.08452 H 8.5469899 v -2.19935 h 0.8659933 l 1.9617428,1.96175 z"
       inkscape:connector-curvature="0"
       style="fill:#ff0000;fill-opacity:1;stroke-width:0.01963705" />
  </g>
</svg>
